<svg width="62" height="62" viewBox="0 0 62 62" fill="none" xmlns="http://www.w3.org/2000/svg">
<path d="M30.9999 23.25V33.5833M30.9999 43.9167H31.0258M56.1358 46.5L35.4691 10.3333C35.0185 9.5382 34.365 8.87683 33.5753 8.41669C32.7857 7.95655 31.8881 7.71411 30.9741 7.71411C30.0602 7.71411 29.1626 7.95655 28.3729 8.41669C27.5832 8.87683 26.9297 9.5382 26.4791 10.3333L5.81244 46.5C5.35695 47.2889 5.11811 48.1841 5.12013 49.095C5.12215 50.0059 5.36495 50.9001 5.82393 51.6869C6.2829 52.4737 6.94174 53.1252 7.73365 53.5753C8.52557 54.0254 9.42241 54.2582 10.3333 54.25H51.6666C52.5731 54.2491 53.4634 54.0097 54.2481 53.5558C55.0328 53.102 55.6843 52.4497 56.1371 51.6644C56.5899 50.8791 56.8282 49.9885 56.828 49.082C56.8277 48.1755 56.589 47.2851 56.1358 46.5Z" stroke="#FF554C" stroke-width="4" stroke-linecap="round" stroke-linejoin="round"/>
</svg>
